<?xml version="1.0" encoding="utf-8"?>
<!-- Generator: Adobe Illustrator 23.0.3, SVG Export Plug-In . SVG Version: 6.00 Build 0)  -->
<svg version="1.1" id="Layer_1" xmlns="http://www.w3.org/2000/svg" xmlns:xlink="http://www.w3.org/1999/xlink" x="0px" y="0px"
	 viewBox="0 0 20 20" style="enable-background:new 0 0 20 20;" xml:space="preserve">
<style type="text/css">
	.st0{fill:#FCFCFC;}
</style>
<path class="st0" d="M15.2,5.7l-9.4,9.4c-0.2,0.2-0.6,0.2-0.9,0l0,0c-0.2-0.2-0.2-0.6,0-0.9l9.4-9.4c0.2-0.2,0.6-0.2,0.9,0l0,0
	C15.4,5.1,15.4,5.5,15.2,5.7z"/>
<path class="st0" d="M14.3,15.2L4.8,5.8c-0.2-0.2-0.2-0.6,0-0.9l0,0c0.2-0.2,0.6-0.2,0.9,0l9.4,9.4c0.2,0.2,0.2,0.6,0,0.9l0,0
	C14.9,15.4,14.5,15.4,14.3,15.2z"/>
</svg>
